<svg xmlns="http://www.w3.org/2000/svg" height="512" viewBox="0 0 514.636 514.636" width="512" xmlns:v="https://vecta.io/nano"><path d="M323.717 138.134c-24.29 0-47.006 6.73-66.4 18.415-19.393-11.684-42.108-18.415-66.4-18.415-71.167 0-128.86 57.693-128.86 128.86 0 19.155 4.626 38.092 12.887 55.34l71.307 148.875c10.798 21.464 33.012 36.195 58.678 36.195 21.397 0 40.398-10.24 52.387-26.08 11.99 15.84 30.99 26.08 52.387 26.08 25.666 0 47.88-14.73 58.678-36.195L439.7 322.334c8.26-17.248 12.887-36.185 12.887-55.34 0-71.167-57.693-128.86-128.86-128.86z" fill="#fd8087"/><path d="M196.253 471.21l-71.307-148.875c-8.26-17.248-12.887-36.185-12.887-55.34 0-62.602 44.644-114.77 103.83-126.422-8.08-1.59-16.423-2.438-24.97-2.438-71.167 0-128.86 57.693-128.86 128.86 0 19.155 4.626 38.092 12.887 55.34l71.307 148.875c10.798 21.464 33.012 36.195 58.678 36.195 8.852 0 17.29-1.757 24.996-4.933-14.63-6.034-26.6-17.203-33.674-31.262z" fill="#fe646f"/><path d="M308.483 104.988h-33.58l.43-6.203c3.26-47 42.345-83.48 89.467-83.48h33.366c0 49.53-40.152 89.682-89.682 89.682z" fill="#57be92"/><path d="M364.8 15.305c-47.123 0-86.208 36.47-89.468 83.48l-.43 6.204h30l.43-6.204c3.26-47 42.345-83.48 89.468-83.48z" fill="#22b27f"/><path d="M241.9 73.176V186.92h33V73.176c0-19.737-9.966-37.806-26.66-48.335L224.355 9.775c-7.706-4.86-17.897-2.554-22.758 5.153s-2.554 17.897 5.154 22.76l23.886 15.065a24.02 24.02 0 0 1 11.264 20.424z" fill="#dc8758"/><path d="M323.718 130.827c-14.153 0-28.005 2.15-41.32 6.4V112.68h26.087c25.958 0 50.363-10.11 68.655-28.4 2.904-2.794 3.01-8.106-.456-11.345-2.893-2.702-7.54-2.093-10.183.77-15.512 15.462-36.1 23.976-58.016 23.976h-25.528c3.85-42.026 39.453-74.685 81.844-74.685h25.534a81.46 81.46 0 0 1-6.785 26.018c-1.69 3.782.008 8.218 3.8 9.907s8.218-.01 9.906-3.8c5.59-12.517 8.423-25.852 8.423-39.635a7.5 7.5 0 0 0-7.5-7.5H364.8c-34.384 0-67.438 19.254-84.453 49.104-4.052-15.74-13.938-29.483-28.11-38.418L228.358 3.62c-13.104-6.644-24.14-4.145-33.104 7.495-7.06 11.198-3.696 26.05 7.494 33.104l23.894 15.072c4.857 3.06 7.757 8.32 7.757 14.073v17.72a7.5 7.5 0 1 0 15 0v-17.72c0-10.937-5.52-20.944-14.76-26.764l-23.892-15.07c-4.195-2.645-5.454-8.215-2.805-12.416 3.362-4.364 7.5-5.3 12.415-2.806l23.88 15.06c14.502 9.145 23.16 24.844 23.16 41.996v106.24h-18v-55.83a7.5 7.5 0 1 0-15 0v14.143c-13.95-4.704-28.526-7.09-43.48-7.09-75.19 0-136.36 61.17-136.36 136.36 0 19.707 4.71 39.963 13.625 58.58l71.312 148.873c21.374 44.834 83.802 53.433 117.823 18.376 33.774 34.802 96.835 26.747 117.822-18.376l28.563-59.627a7.5 7.5 0 1 0-13.531-6.473l-28.526 59.55c-19.014 37.728-72.724 42.75-98.348 8.9-3.987-3.965-7.973-3.965-11.96 0-25.625 33.852-79.334 28.827-98.35-8.9L81.713 319.286c-7.952-16.605-12.154-34.622-12.154-52.1 0-66.918 54.442-121.36 121.36-121.36 15.035 0 29.636 2.708 43.48 8.037v25.66a38.3 38.3 0 0 1-24.869-11.221 7.5 7.5 0 0 0-10.606 10.607 53.24 53.24 0 0 0 37.895 15.696h41a53.24 53.24 0 0 0 37.895-15.696 7.5 7.5 0 0 0-10.606-10.607c-6.198 6.198-14.135 10.017-22.708 11.025v-26.27c13.226-4.796 27.1-7.23 41.32-7.23 66.918 0 121.36 54.44 121.36 121.36 0 17.48-4.203 35.495-12.153 52.098l-27.1 56.56a7.5 7.5 0 0 0 3.521 10.005c3.82 1.676 7.155.502 10.005-3.52l27.092-56.563c8.914-18.616 13.625-38.872 13.625-58.58-.002-75.187-61.173-136.358-136.362-136.358z"/></svg>