<svg xmlns="http://www.w3.org/2000/svg" height="512" viewBox="0 0 512.102 512.102" width="512" xmlns:v="https://vecta.io/nano"><path d="M333.14 167.467H178.964c-13.807 0-25-11.193-25-25s11.193-25 25-25H333.14c13.807 0 25 11.193 25 25s-11.193 25-25 25z" fill="#fef7ed"/><path d="M228.96 167.47h-50c-13.8 0-25-11.2-25-25 0-6.9 2.8-13.16 7.33-17.68 4.52-4.52 10.77-7.32 17.67-7.32h50c-6.9 0-13.15 2.8-17.67 7.32-4.53 4.52-7.33 10.78-7.33 17.68 0 13.8 11.2 25 25 25z" fill="#fff0dc"/><path d="M284.827 82.314h-28.014l.36-5.175c2.72-39.216 35.325-69.64 74.635-69.64h27.834c0 41.32-33.495 74.815-74.814 74.815z" fill="#57be92"/><path d="M373.693 217.467H138.41c-13.807 0-25-11.193-25-25s11.193-25 25-25h235.282c13.807 0 25 11.193 25 25s-11.193 25-25 25z" fill="#fef7ed"/><path d="M188.41 217.47h-50c-13.8 0-25-11.2-25-25a24.94 24.94 0 0 1 25-25h50a24.94 24.94 0 0 0-25 25c0 13.8 11.2 25 25 25z" fill="#fff0dc"/><circle cx="256.051" cy="82.317" fill="#fd8087" r="35.146"/><path d="M423.16 320.418H88.943v-42.95c0-33.137 26.863-60 60-60H363.16c33.137 0 60 26.863 60 60z" fill="#dc8758"/><path d="M198.94 217.47c-33.13 0-60 26.86-60 60v42.95h-50v-42.95c0-33.14 26.87-60 60-60z" fill="#d77f4a"/><path d="M436.05 308.904L400.476 479.32c-3.095 14.828-14.636 25.283-27.908 25.283H139.536c-13.272 0-24.812-10.455-27.908-25.283L76.054 308.904l18.126-29.43c7.41-12.03 22.93-12.073 30.39-.085l3.816 6.133c7.257 11.662 22.243 12.004 29.897.68l6.406-9.477c7.477-11.06 22.027-11.04 29.48.04l7.607 11.308c7.23 10.747 21.228 11.15 28.918.833l12.532-16.814c6.964-9.344 19.33-10.046 27.062-1.537l17.183 18.908c7.398 8.14 19.126 7.9 26.267-.537l12.5-14.77c8.35-9.865 22.512-8.26 29.022 3.29l2.226 3.95c7.31 12.972 23.806 13.055 31.216.157 7.306-12.72 23.508-12.854 30.975-.26z" fill="#fd8087"/><path d="M177.8 504.602h-38.266c-13.268 0-24.806-10.453-27.905-25.28L76.05 308.902l18.128-29.424c7.414-12.035 22.93-12.08 30.393-.088l3.817 6.133.172.264-6.724 10.91c-4.78 7.756-6.414 17.504-4.485 26.745l32.542 155.88c3.1 14.827 14.636 25.28 27.905 25.28z" fill="#fe646f"/><path d="M226.683 504.602h-53.916L145.685 294.35c4.745-.616 9.337-3.32 12.6-8.145l6.4-9.475c7.47-11.068 22.022-11.046 29.474.033l7.615 11.3c3.798 5.65 9.46 8.44 15.105 8.3zM373.805 291.15l-29.943 213.452h-53.916l9.844-209.198c5.05.176 10.15-2 13.948-6.474l12.503-14.773c8.35-9.87 22.5-8.265 29.024 3.287l2.23 3.946c3.808 6.76 10.103 10.024 16.3 9.76z" fill="#fff9e2"/><path d="M442.5 305.078l-11.84-19.972c1.992-27.324-11.744-54.65-36.386-67.508 7.27-5.965 11.92-15.015 11.92-25.132 0-17.92-14.58-32.5-32.5-32.5h-13.188a32.3 32.3 0 0 0 5.135-17.5c0-17.92-14.58-32.5-32.5-32.5h-44.662c5.05-5.913 8.52-13.21 9.735-21.244 15.672-2.6 30.487-9.76 42.266-20.565a7.5 7.5 0 1 0-10.139-11.055c-9.28 8.512-20.423 14.118-32.552 16.463-2.625-12.54-10.777-23.067-21.78-28.92C288.43 26.18 309.14 15 331.81 15h19.92c-.76 6.892-2.572 13.576-5.418 19.953a7.5 7.5 0 1 0 13.697 6.113c4.73-10.603 7.13-21.896 7.13-33.566a7.5 7.5 0 0 0-7.5-7.5h-27.83c-29.223 0-55.786 15.186-70.616 39.99a42.82 42.82 0 0 0-5.144-.321c-23.515 0-42.646 19.13-42.646 42.646 0 10.544 3.854 20.2 10.217 27.65h-44.66c-17.92 0-32.5 14.58-32.5 32.5a32.3 32.3 0 0 0 5.135 17.5H138.4c-17.92 0-32.5 14.58-32.5 32.5 0 10.116 4.647 19.166 11.917 25.13-25.21 13.154-37.803 40.614-36.388 68.26L69.667 304.97c-1.006 1.632-1.348 3.588-.956 5.465l35.575 170.415c3.84 18.4 18.335 31.25 35.25 31.25h233.032c16.914 0 31.41-12.85 35.25-31.25l35.575-170.415c.383-1.834.066-3.746-.89-5.358zM256.05 54.67c15.244 0 27.646 12.4 27.646 27.646s-12.4 27.646-27.646 27.646-27.646-12.402-27.646-27.646S240.805 54.67 256.05 54.67zm-94.587 87.796c0-9.65 7.85-17.5 17.5-17.5H333.14c9.65 0 17.5 7.85 17.5 17.5s-7.85 17.5-17.5 17.5H178.962c-9.65 0-17.5-7.85-17.5-17.5zM148.94 224.97h45.2a7.5 7.5 0 1 0 0-15l-55.73-.004c-9.65 0-17.5-7.85-17.5-17.5s7.85-17.5 17.5-17.5h235.282c9.65 0 17.5 7.85 17.5 17.5s-7.85 17.5-17.5 17.5l-146.873.004a7.5 7.5 0 1 0 0 15h136.34c25.277 0 46.436 17.958 51.397 41.785-11.934-5.626-25.826-.307-32.355 11.06-4.518 7.863-13.726 7.796-18.18-.104l-2.227-3.95c-8.7-15.457-29.615-18.24-41.28-4.453l-12.5 14.77c-4.2 4.962-10.627 5.142-14.992.338L275.84 265.5c-11.145-12.264-29.623-9.982-38.627 2.1l-12.532 16.815c-5.72 6.134-11.28 5.955-16.682-.538l-7.606-11.308c-10.127-15.056-31.747-15.1-41.918-.054L152.07 282c-4.36 6.45-12.825 6.772-17.314-.443-6.918-13.373-22.107-23.8-37.032-15.585 5.258-23.435 26.218-41.003 51.216-41.003zm30.422 272.132L153.928 299.66c6.538-3.103 13.258-12.126 16.975-18.734 4.5-6.66 12.56-6.64 17.045.026 4.345 8.154 13.137 19.394 21.74 21.943l9.136 194.208zm45.324-194.62c9.544-3.44 19.554-17.378 24.556-25.9 4.896-5.61 10.062-5.936 15.498-.975 6.247 8.316 17.066 22.037 27.254 25.82L282.788 497.1H233.84zM118.97 477.786L84.004 310.294l16.56-26.888c4.485-7.285 13.12-7.316 17.638-.056 3.94 8.467 11.368 16.35 20.845 18.188l25.19 195.563h-24.703c-9.736.001-18.193-7.942-20.566-19.315zm274.163 0c-2.374 11.373-10.83 19.315-20.565 19.315h-20.083l11.382-81.1a7.5 7.5 0 1 0-14.854-2.084L337.338 497.1h-39.534l9.178-195.117c9.308-2.655 19.677-15.1 24.982-22.986 6.228-5.718 11.816-5.01 16.764 2.128 3.434 7.152 8.98 12.568 16.633 16.245l-11.77 83.854a7.5 7.5 0 0 0 6.384 8.47 7.52 7.52 0 0 0 1.053.074 7.5 7.5 0 0 0 7.417-6.458l12.043-85.8c6.015-1.93 11.254-6.194 14.72-12.226 4.44-7.73 13.475-7.834 18.02-.17l14.884 25.105z"/></svg>