<svg xmlns="http://www.w3.org/2000/svg" height="512" width="512" xmlns:v="https://vecta.io/nano"><path d="M117.76 151.48l.09 5.227c.772 22.57-5.162 44.913-17.342 63.932-17.897 27.946-28.467 61.032-28.995 96.555-1.515 101.9 82.228 187.117 184.14 187.305 102.06.188 184.856-82.49 184.856-184.508 0-36.874-10.822-71.217-29.458-100.036-12.52-19.36-18.675-42.026-18.165-65.075l.038-3.4C392.923 71.962 331.326 7.5 255.34 7.5S117.76 71.962 117.76 151.48z" fill="#57be92"/><path d="M255.727 464.5c-38.487-.07-74.846-15.528-102.38-43.526-27.553-28.018-42.413-64.662-41.84-103.185.4-26.896 8.244-53.03 22.684-75.578 16.524-25.802 24.696-55.84 23.634-86.872a115.81 115.81 0 0 1-.066-3.858c0-57.335 43.775-103.98 97.582-103.98s97.582 46.646 97.582 103.98l-.027 2.502c-.696 31.445 7.8 61.766 24.566 87.694 15.078 23.315 23.047 50.396 23.047 78.314 0 38.603-15.03 74.894-42.324 102.188s-63.58 42.32-102.175 42.32h-.284z" fill="#fef0ae"/><path d="M281.17 462.33c-8.23 1.44-16.64 2.17-25.16 2.17h-.28c-38.5-.07-74.85-15.53-102.38-43.53-27.56-28-42.42-64.66-41.84-103.18.4-26.9 8.24-53.03 22.68-75.58 16.53-25.8 24.7-55.84 23.64-86.87a99.39 99.39 0 0 1-.07-3.86c0-57.33 43.77-103.98 97.58-103.98 8.64 0 17.02 1.2 25 3.46-41.74 11.8-72.58 52.4-72.58 100.52a99.39 99.39 0 0 0 .07 3.86c1.06 31.03-7.1 61.07-23.64 86.87-14.44 22.55-22.28 48.68-22.68 75.58-.58 38.52 14.28 75.17 41.84 103.18 21.6 21.96 48.6 36.2 77.82 41.36z" fill="#ffe177"/><circle cx="256" cy="319.991" fill="#fece85" transform="matrix(.383 -.924 .924 .383 -137.601 434.049)" r="73"/><path d="M281 388.58c-7.8 2.85-16.22 4.4-25 4.4-40.25 0-73-32.75-73-73s32.75-73 73-73c8.78 0 17.2 1.56 25 4.42-27.98 10.22-48 37.1-48 68.58s20.02 58.36 48 68.6z" fill="#fec165"/><path d="M256.005 512h-.37c-51.3-.096-99.643-20.594-136.153-57.72C82.95 417.135 63.25 368.4 64 317.08c.534-35.748 10.97-70.495 30.184-100.485 12.968-20.25 16.066-41.595 16.066-65.115 0-14.435 1.943-28.72 5.776-42.456a7.5 7.5 0 0 1 14.448 4.031c-3.466 12.425-5.224 25.353-5.224 38.425 0 26.445-3.892 50.496-18.434 73.204C89.12 252.323 79.5 284.35 79 317.303c-.7 47.285 17.472 92.197 51.168 126.46 33.675 34.24 78.24 53.148 125.487 53.236h.34c47.22 0 91.615-18.36 125.043-51.728C414.556 411.826 433 367.334 433 320c0-34.204-9.77-67.385-28.257-95.956-14.17-21.913-19.333-46.85-19.333-72.554C385.42 76.225 327.067 15 255.34 15c-45.897 0-88.885 25.814-112.188 67.37-2.025 3.612-6.596 4.898-10.2 2.873a7.51 7.51 0 0 1-2.873-10.21C155.35 29.954 203.286 0 255.34 0c79.998 0 145.08 67.954 145.08 151.48 0 23.153 4.166 44.672 16.928 64.406C437.407 246.9 448 282.888 448 320c0 51.355-20.018 99.618-56.366 135.9-36.258 36.2-84.42 56.1-135.64 56.1zM256 472h-.28c-40.526-.074-78.78-16.33-107.728-45.772-28.978-29.45-44.602-68.002-44-108.55.42-28.295 8.673-55.8 23.863-79.512 16.948-26.452 22.386-55.866 22.386-86.685C150.26 90 197.4 40 255.34 40s105.08 50 105.08 111.48a217.58 217.58 0 0 0 .939 23.416 7.5 7.5 0 0 1-6.576 8.322c-4.122.467-7.84-2.463-8.322-6.576a233.01 233.01 0 0 1-1.041-25.162c0-53.2-40.4-96.48-90.08-96.48s-90.08 43.28-90.08 96.48c0 33.863-6.22 65.845-24.755 94.775-13.683 21.368-21.116 46.143-21.496 71.646-.55 36.505 13.545 71.24 39.688 97.8 26.115 26.56 60.58 41.224 97.047 41.3H256c36.592 0 70.993-14.25 96.867-40.124C378.757 390.996 393 356.588 393 320c0-26.473-7.555-52.144-21.847-74.236-7.053-10.908-12.757-22.64-16.957-34.868a7.5 7.5 0 0 1 4.658-9.529c3.917-1.342 8.185.74 9.53 4.658a144.93 144.93 0 0 0 15.365 31.593C399.614 262.142 408 290.63 408 320c0 40.604-15.813 78.78-44.526 107.493C334.777 456.2 296.608 472 256 472zm0-71.5a80.8 80.8 0 0 1-11.228-.783 7.5 7.5 0 0 1-6.379-8.475c.58-4.102 4.37-6.955 8.474-6.38 2.994.423 6.067.637 9.133.637 36.117 0 65.5-29.383 65.5-65.5s-29.383-65.5-65.5-65.5-65.5 29.383-65.5 65.5c0 20.858 10.1 40.662 27.04 52.975a7.5 7.5 0 0 1-8.822 12.131c-20.8-15.125-33.22-39.464-33.22-65.105 0-44.388 36.112-80.5 80.5-80.5s80.5 36.112 80.5 80.5-36.112 80.5-80.5 80.5z"/></svg>