<svg xmlns="http://www.w3.org/2000/svg" xmlns:xlink="http://www.w3.org/1999/xlink" height="512" width="512" xmlns:v="https://vecta.io/nano"><path d="M192.438 425.738h85.667V391.06c0-16.57-13.43-30-30-30h-85.667z" fill="#fe99a0"/><g fill="#fd8087"><path d="M192.438 425.738h85.667v34.678c0 16.57-13.43 30-30 30h-85.667z"/><path d="M505.06 288.9c0 46.72-18.94 89.02-49.55 119.63-30.6 30.62-72.9 49.56-119.63 49.56H278.1V393.4h45.5c17.75 0 33.7-7.72 44.65-20 9.45-10.58 15.2-24.54 15.2-39.84 0-16.53-6.7-31.5-17.53-42.32s-25.8-17.53-42.32-17.53H209.77c-49.7 0-90-40.3-90-90v-64h216.1c93.44 0 169.18 75.75 169.18 169.18z"/></g><path d="M433.44 313.56c0 33.05-26.8 59.84-59.85 59.84h-5.35c9.45-10.58 15.2-24.54 15.2-39.84 0-16.53-6.7-31.5-17.53-42.32s-25.8-17.53-42.32-17.53H209.77c-49.7 0-90-40.3-90-90v-64h50v44c0 49.7 40.3 90 90 90H373.6c6.25 0 12.28.96 17.94 2.74 9.3 2.92 17.65 8.06 24.38 14.8 10.83 10.83 17.53 25.8 17.53 42.32z" fill="#fe646f"/><g fill="#fd8087"><path d="M411.42 359.93c-10.3 8.42-23.48 13.47-37.83 13.47h-5.35c5.77-6.46 10.16-14.2 12.7-22.7h.01z"/><use xlink:href="#B"/></g><path d="M478.32 380.2v.01a170.04 170.04 0 0 1-22.81 28.3c-30.6 30.62-72.9 49.56-119.63 49.56h-12.3V393.4c27.1 0 50-18 57.36-42.7z" fill="#fe99a0"/><path d="M411.42 359.93c-10.3 8.42-23.48 13.47-37.83 13.47h-5.35c5.77-6.46 10.16-14.2 12.7-22.7h.01z" fill="#fd8087"/><path d="M461.55 175.63L363.42 288.9c-10.58-9.44-24.53-15.18-39.83-15.18v-154h12.3c49.88 0 94.72 21.6 125.67 55.92z" fill="#fe99a0"/><use xlink:href="#B" fill="#fd8087"/><circle cx="199.781" cy="173" fill="#eaf6ff" r="20"/><path d="M198.688 200.193c-15.2 0-27.548-12.358-27.548-27.548s12.358-27.548 27.548-27.548 27.548 12.358 27.548 27.548-12.358 27.548-27.548 27.548zm0-40.07a12.54 12.54 0 0 0-12.522 12.522 12.54 12.54 0 0 0 12.522 12.522 12.54 12.54 0 0 0 12.522-12.522 12.54 12.54 0 0 0-12.522-12.522zm305.85 122.27h-.05c-4.125 0-7.485 3.33-7.512 7.463a160.63 160.63 0 0 1-22.747 81.45l-85.128-25.81c3.647-20.384-2.37-41.682-16.248-57.1l88.02-101.602c16.9 20.796 28.315 45.3 33.3 71.758 2.096 4.68 5.02 6.677 8.774 5.992 4.077-.768 6.76-4.697 5.992-8.774-15.545-82.524-90.073-144.02-173.912-144.02H118.538c-4.15 0-7.513 3.363-7.513 7.513v18.823H90.913c-16.4 0-29.744-13.343-29.744-29.745s13.343-29.744 29.744-29.744H311.52c4.15 0 7.513-3.363 7.513-7.513s-3.363-7.513-7.513-7.513H90.913c-24.686 0-44.77 20.084-44.77 44.77s20.084 44.77 44.77 44.77h20.112v28.8H91.53c-42.184 0-76.503-34.32-76.503-76.503s34.32-76.504 76.503-76.504h148.888c4.15 0 7.513-3.363 7.513-7.513s-3.364-7.513-7.513-7.513H91.53C41.06 13.87 0 54.93 0 105.4s41.06 91.53 91.53 91.53h20.443c.933 6.7 2.547 13.295 4.86 19.686 1.412 3.9 5.72 5.92 9.62 4.508s5.92-5.72 4.508-9.622c-3.26-9.003-4.9-18.466-4.9-28.126v-56.598h189.153v139.24h-106.5c-22.232 0-43.1-8.704-58.73-24.508-2.92-2.95-7.675-2.972-10.625-.056s-2.974 7.676-.055 10.625c18.485 18.68 43.136 28.965 69.4 28.965h24.2v32.847c0 4.15 3.364 7.513 7.513 7.513s7.513-3.363 7.513-7.513v-32.847h26.124v32.847c0 4.15 3.363 7.513 7.513 7.513s7.513-3.363 7.513-7.513v-32.847h26.123v32.847c0 4.15 3.363 7.513 7.513 7.513s7.513-3.363 7.513-7.513v-32.3c32.322 4.662 50.415 37.113 42.67 67.183-6.502 21.425-27.734 37.142-50.22 37.142h-38.382c-2.527-18.276-18.24-32.397-37.2-32.397H161.28c-6.17 1.068-8.443 4.627-6.816 10.675l28.587 61.633-28.586 61.63c-1.627 6.048.645 9.605 6.816 10.674h47.072c4.15 0 7.513-3.363 7.513-7.513s-3.364-7.513-7.513-7.513h-35.305l23.083-49.766h73.5v27.227c0 12.428-10.1 22.54-22.54 22.54h-6c-4.15 0-7.513 3.363-7.513 7.513s3.364 7.513 7.513 7.513h6c18.96 0 34.673-14.12 37.2-32.396h50.732c47.064 0 91.367-18.27 124.75-51.442C493.14 381.136 511.686 336.98 512 289.96a7.52 7.52 0 0 0-7.463-7.564zm-169.514-155.62c43.34 0 85.468 17.765 115.758 48.716l-89.164 102.925c-9.072-6.428-19.787-10.677-31.387-11.97v-139.67zM284.66 400.942h30.543v49.766h-30.548zm-37.565-32.397c12.428 0 22.54 10.1 22.54 22.54V418.3H196.13l-23.083-49.764zm87.928 82.163h-4.793v-50.193c23.66-2.608 45.266-18.725 54.585-40.614l80.735 24.48c-29.547 40.168-77.122 66.327-130.527 66.327z"/><defs ><path id="B" d="m391.53 256.45-28.11 32.44c-10.58-9.44-24.53-15.18-39.83-15.18v-20h50c6.25 0 12.28.96 17.94 2.74z"/></defs></svg>