<svg xmlns="http://www.w3.org/2000/svg" height="512" width="512" xmlns:v="https://vecta.io/nano"><path d="M132.226 504.5c-46.194 0-83.776-37.582-83.776-83.776v-178.22c0-24.31 6.11-47.67 17.608-68.332a107.54 107.54 0 0 1-17.608-59.021C48.45 55.793 96.743 7.5 156.103 7.5h199.795c59.36 0 107.652 48.293 107.652 107.652a107.54 107.54 0 0 1-17.609 59.021c11.497 20.662 17.61 44.02 17.61 68.332v178.22c0 46.194-37.582 83.776-83.776 83.776z" fill="#dc8758"/><path d="M132.227 464.5c-24.14 0-43.776-19.638-43.776-43.776v-178.22c0-17.2 4.344-34.113 12.562-48.882l11.767-21.146L99.5 152.24c-7.234-11.033-11.06-23.858-11.06-37.087 0-37.303 30.35-67.652 67.652-67.652h199.795c37.304 0 67.652 30.35 67.652 67.652 0 13.23-3.824 26.053-11.06 37.087l-13.27 20.237 11.767 21.146c8.22 14.77 12.563 31.673 12.563 48.882v178.22c0 24.138-19.638 43.776-43.776 43.776H132.227z" fill="#fece85"/><path d="M182.23 464.5h-50c-24.14 0-43.78-19.64-43.78-43.78V242.5c0-17.2 4.34-34.1 12.56-48.88l11.77-21.14-13.27-20.24c-7.24-11.03-11.06-23.86-11.06-37.1 0-37.3 30.35-67.65 67.65-67.65h50c-37.3 0-67.65 30.35-67.65 67.65 0 13.23 3.82 26.06 11.06 37.1l13.27 20.24L151 193.62c-8.22 14.77-12.56 31.67-12.56 48.88v178.22c0 24.14 19.64 43.78 43.78 43.78z" fill="#fec165"/><path d="M152.23 504.5h-20c-46.2 0-83.78-37.58-83.78-83.78V242.5c0-24.3 6.1-47.66 17.6-68.33-11.34-17.28-17.6-37.72-17.6-59.02C48.45 55.8 96.74 7.5 156.1 7.5h20c-59.36 0-107.65 48.3-107.65 107.65 0 21.3 6.27 41.74 17.6 59.02-11.5 20.67-17.6 44.02-17.6 68.33v178.22c0 46.2 37.58 83.78 83.78 83.78z" fill="#d77f4a"/><path d="M471.05 115.15C471.05 51.656 419.394 0 355.9 0H156.1C92.606 0 40.95 51.656 40.95 115.15c0 21.014 5.67 41.426 16.44 59.32-10.767 20.85-16.44 44.272-16.44 68.03v26.3a7.5 7.5 0 1 0 15 0v-26.3c0-22.723 5.762-45.1 16.663-64.684a7.5 7.5 0 0 0-.283-7.761c-10.716-16.33-16.38-35.315-16.38-54.905C55.95 59.927 100.877 15 156.1 15h199.8c55.223 0 100.15 44.927 100.15 100.15 0 19.6-5.664 38.576-16.38 54.905a7.5 7.5 0 0 0-.283 7.761c10.9 19.594 16.663 41.96 16.663 64.684v178.22c0 42.06-34.22 76.28-76.28 76.28H272.34a7.5 7.5 0 1 0 0 15h107.43c50.332 0 91.28-40.948 91.28-91.28V242.5c0-23.76-5.672-47.18-16.44-68.03 10.768-17.893 16.44-38.305 16.44-59.32zM239.66 497H132.23c-42.062 0-76.28-34.22-76.28-76.28V301.5a7.5 7.5 0 1 0-15 0v119.22c0 50.332 40.948 91.28 91.28 91.28h107.43a7.5 7.5 0 1 0 0-15zM80.95 242.5v178.22c0 28.276 23.004 51.28 51.28 51.28h247.54c28.276 0 51.28-23.004 51.28-51.28V242.5c0-25.487-10.205-48.306-23.07-69.703 12.203-16.88 23.07-36.22 23.07-57.647 0-41.438-33.712-75.15-75.15-75.15h-10.2a7.5 7.5 0 1 0 0 15h10.2c33.166 0 60.15 26.983 60.15 60.15 0 19.7-11.778 37.794-23.103 53.218a7.5 7.5 0 0 0-.28 7.761c12.443 19.786 23.383 42.605 23.383 66.372v178.22c0 20.005-16.275 36.28-36.28 36.28H132.23c-20.005 0-36.28-16.275-36.28-36.28V242.5c0-24.007 11.03-46.344 23.383-66.372a7.5 7.5 0 0 0-.28-7.76c-11.302-15.283-23.103-33.6-23.103-53.218C95.95 81.983 122.934 55 156.1 55H313a7.5 7.5 0 1 0 0-15H156.1c-41.438 0-75.15 33.712-75.15 75.15 0 21.385 10.822 40.784 23.07 57.647-12.774 21.55-23.07 43.974-23.07 69.703zm166.072-95.862c-1.15-3.98-5.313-6.27-9.288-5.12l-28.818 8.338a7.5 7.5 0 0 0-5.12 9.289c.95 3.283 3.946 5.417 7.2 5.417.7 0 30.906-8.635 30.906-8.635a7.5 7.5 0 0 0 5.12-9.289zm-5.435 124.347c.7 0 30.907-8.636 30.907-8.636a7.5 7.5 0 1 0-4.17-14.409l-28.818 8.338a7.5 7.5 0 0 0-5.119 9.289c.95 3.284 3.946 5.418 7.2 5.418zm80.658 92.807l-25.358-16.028a7.5 7.5 0 1 0-8.014 12.68l25.358 16.028a7.46 7.46 0 0 0 4 1.16c2.486 0 4.92-1.236 6.347-3.494a7.5 7.5 0 0 0-2.333-10.347zm11.805-177.026a7.5 7.5 0 0 0 1.155-10.543l-18.776-23.397a7.5 7.5 0 1 0-11.699 9.388l18.776 23.397c1.48 1.846 3.658 2.806 5.854 2.806a7.47 7.47 0 0 0 4.69-1.651zM193.052 357.423a7.5 7.5 0 1 0-11.699 9.388l18.777 23.397c1.482 1.846 3.658 2.806 5.854 2.806a7.47 7.47 0 0 0 4.689-1.651 7.5 7.5 0 0 0 1.155-10.543zm-32.492-118.06l-9.917 28.313a7.5 7.5 0 0 0 4.599 9.558c.82.287 1.657.423 2.48.423 3.098 0 5.996-1.934 7.078-5.023l9.917-28.313a7.5 7.5 0 0 0-4.599-9.558c-3.9-1.367-8.188.7-9.557 4.6zm199.962 70.304c3.098 0 5.996-1.934 7.078-5.023l9.917-28.313a7.5 7.5 0 0 0-4.599-9.558c-3.908-1.368-8.188.7-9.558 4.6l-9.917 28.313a7.5 7.5 0 0 0 7.079 9.981z"/></svg>