<svg xmlns="http://www.w3.org/2000/svg" width="44" height="41.067" xmlns:v="https://vecta.io/nano"><defs><linearGradient id="A" x1="1" y1=".567" x2="0" y2=".567"><stop offset="0" stop-color="#6a9bf4"/><stop offset=".679" stop-color="#766df4"/></linearGradient></defs><g fill="url(#A)"><path d="M41.8 41.067H2.2a2.2 2.2 0 0 1-2.2-2.2V13.2A2.2 2.2 0 0 1 2.2 11h17.6v-.733A2.2 2.2 0 0 1 21.267 8.2V0h1.466v8.2a2.2 2.2 0 0 1 1.467 2.066V11h4.4V4.4a2.933 2.933 0 0 1 5.866 0V11H41.8a2.2 2.2 0 0 1 2.2 2.2v25.667a2.2 2.2 0 0 1-2.2 2.2zM1.467 38.133v.734a.734.734 0 0 0 .733.733h39.6a.734.734 0 0 0 .734-.734v-.734zm0-19.8v18.334h41.066V18.333H34.47v4.4a.035.035 0 0 1 0 .01.035.035 0 0 0 0 .01.738.738 0 0 1-.037.212l-1.235 3.7a1.753 1.753 0 0 1-.928 1.032v1.264a4.033 4.033 0 1 1-8.067 0V25.3a2.567 2.567 0 0 0-5.134 0 3.309 3.309 0 0 1-3.3 3.3h-1.1v-1.467h1.1A1.835 1.835 0 0 0 17.6 25.3a4.033 4.033 0 0 1 8.067 0v3.667a2.566 2.566 0 1 0 5.133 0V27.7a1.754 1.754 0 0 1-.928-1.032l-1.235-3.7a.777.777 0 0 1-.033-.212.035.035 0 0 0 0-.01.035.035 0 0 1 0-.01v-4.4zm28.884 5.134l.913 2.74a.294.294 0 0 0 .54 0l.913-2.74zm-.284-8.8V22H33v-7.334zm4.4-2.2v4.4h8.067V15.4h-3.667v-1.467h3.667V13.2a.734.734 0 0 0-.734-.734zm-33 2.933v1.467H28.6v-4.4H2.2a.734.734 0 0 0-.733.734v.733h3.667V15.4zm28.6-9.533V13.2H33V5.867zM22 9.534a.733.733 0 0 0-.733.733V11h1.466v-.733A.734.734 0 0 0 22 9.534zm9.534-6.6A1.469 1.469 0 0 0 30.066 4.4H33a1.469 1.469 0 0 0-1.467-1.467z"/><path d="M11.733 27.133H13.2V28.6h-1.467z"/><path d="M8.8 27.133h1.467V28.6H8.8z"/><path d="M5.867 27.133h1.467V28.6H5.867z"/><path d="M6.6 13.933h1.467V15.4H6.6z"/><path d="M35.933 13.933H37.4V15.4h-1.467z"/></g></svg>