<svg xmlns="http://www.w3.org/2000/svg" width="39.892" height="52.033" xmlns:v="https://vecta.io/nano"><defs><linearGradient id="A" x1="1" y1=".567" x2="0" y2=".567"><stop offset="0" stop-color="#6a9bf4"/><stop offset=".679" stop-color="#766df4"/></linearGradient></defs><g fill="url(#A)"><path d="M19.946 52.033c-.155 0-.308-.042-.44-.12L.426 40.64c-.263-.157-.425-.44-.426-.747V17.344a.87.87 0 0 1 .426-.744L12.35 9.552a7.73 7.73 0 0 1-.209-1.752c0-2.788 1.488-5.365 3.902-6.76s5.4-1.394 7.805 0 3.903 3.97 3.902 6.76c-.003.588-.073 1.175-.21 1.747L39.466 16.6a.87.87 0 0 1 .426.746v22.546c-.001.307-.163.6-.426.747l-19.08 11.273c-.133.08-.286.12-.44.12zm18.21-33.17l-17.344 10.25v20.532L38.157 39.4zm-36.423 0V39.4l17.344 10.245V29.113zm11.21-7.65l-10.373 6.13L19.946 27.6 37.32 17.344l-10.373-6.13a7.85 7.85 0 0 1-2.664 3.073V15.6h1.734v1.734h-1.734v2.6a.87.87 0 0 1-.868.868h-2.6v1.734h-1.736v-1.733h-2.6a.87.87 0 0 1-.868-.868v-2.6h-1.735V15.6H15.6v-1.322a7.85 7.85 0 0 1-2.664-3.074zm4.4 6.13v1.734h5.2v-1.734zm4.6-10.152h0l1.226 1.225-2.347 2.348V15.6h1.734v-1.8a.87.87 0 0 1 .433-.751 6.06 6.06 0 0 0-3.035-11.305 6.06 6.06 0 0 0-3.035 11.305.87.87 0 0 1 .433.751v1.8h1.734v-4.844L16.73 8.418l1.227-1.226 1.988 1.988 1.987-1.987z"/><path transform="matrix(.861 -.509 .509 .861 12.363 32.09)" d="M0 0h1.858v1.734H0z"/><path transform="matrix(.861 -.509 .509 .861 15.56 30.201)" d="M0 0h1.858v1.734H0z"/><path transform="matrix(.861 -.509 .509 .861 2.772 37.759)" d="M0 0h1.857v1.734H0z"/><path transform="matrix(.861 -.509 .509 .861 9.17 33.982)" d="M0 0h1.857v1.734H0z"/><path transform="matrix(.861 -.509 .509 .861 5.97 35.871)" d="M0 0h1.857v1.734H0z"/><path transform="matrix(.509 -.861 .861 .509 34.64 38.31)" d="M0 0h1.735v1.858H0z"/><path transform="matrix(.509 -.861 .861 .509 25.046 32.642)" d="M0 0h1.734v1.857H0z"/><path transform="matrix(.509 -.861 .861 .509 31.445 36.421)" d="M0 0h1.735v1.858H0z"/><path transform="matrix(.509 -.861 .861 .509 21.849 30.748)" d="M0 0h1.734v1.857H0z"/><path transform="matrix(.509 -.861 .861 .509 28.246 34.526)" d="M0 0h1.734v1.857H0z"/><path d="M19.08 24.282h1.734v1.734H19.08z"/></g></svg>