<?xml version="1.0" encoding="utf-8"?>
<!-- Generator: Adobe Illustrator 23.0.1, SVG Export Plug-In . SVG Version: 6.00 Build 0)  -->
<svg version="1.1" id="Layer_1" xmlns="http://www.w3.org/2000/svg" xmlns:xlink="http://www.w3.org/1999/xlink" x="0px" y="0px"
	 viewBox="0 0 97 79" style="enable-background:new 0 0 97 79;" xml:space="preserve">
<style type="text/css">
	.st0{opacity:0.1;fill-rule:evenodd;clip-rule:evenodd;fill:#16C995;enable-background:new    ;}
	.st1{opacity:0.1;fill:#16C995;enable-background:new    ;}
	.st2{fill:#16C995;}
</style>
<title>icon</title>
<desc>Created with Sketch.</desc>
<g>
	<g transform="translate(-797.000000, -1188.000000)">
		<g id="Services" transform="translate(345.000000, 1157.000000)">
			<g id="cards">
				<g id="card" transform="translate(420.000000, 0.000000)">
					<g id="icon" transform="translate(20.000000, 23.000000)">
						<path id="Oval" class="st0" d="M45.3,82.9c17.9,8.7,53.2,3.1,61.9-14.8s-17.1-38.1-35-46.8s-42-21.7-50.7-3.9
							S27.4,74.2,45.3,82.9z"/>
						<g transform="translate(12.000000, 32.000000)">
							<path id="Path" class="st1" d="M3.9,25.3c0-0.6,0.3-1.2,0.9-1.5l5.6-3.4v-3.2L2.4,22c-0.5,0.3-0.9,0.9-0.9,1.5v1.4l2.3,1.4
								V25.3z"/>
							<path class="st1" d="M4.1,48.5V28.3l-2.6-1.6v21.8c0,2.7,2.2,4.9,4.9,4.9h2.6C6.3,53.4,4.1,51.2,4.1,48.5z"/>
							<path id="Shape" class="st2" d="M52.9,48.5v-25c0-1.2-0.6-2.2-1.6-2.8L43,15.5c0,0-0.1,0-0.1,0l-0.2-0.1v-2.3
								c0-0.2-0.1-0.4-0.2-0.5l-11-12.3c0,0,0,0,0,0C31.3,0.1,31.1,0,30.9,0c0,0-0.1,0-0.1,0l0,0c0,0-0.1,0-0.1,0H15.1
								c-2.7,0-4.8,2.2-4.8,4.8v10.5l-8.7,5.3c-1,0.6-1.6,1.7-1.6,2.9v25C0,52.1,2.9,55,6.5,55h40C50,55,52.9,52.1,52.9,48.5
								L52.9,48.5z M50.5,22c0.5,0.3,0.9,0.9,0.9,1.5v1.4l-8.7,5.3V17.1L50.5,22z M31.6,2.8L39,11H35c-1.8,0-3.3-1.5-3.3-3.3V2.8z
								 M15.1,1.6h15v6.2c0,2.7,2.2,4.8,4.8,4.8h5.5l0.7,0.8v17.9l-14.6,9l-14.6-9V4.9C11.8,3,13.3,1.6,15.1,1.6z M2.4,22l7.9-4.8
								v13.1l-8.7-5.3v-1.4C1.5,22.9,1.9,22.3,2.4,22L2.4,22z M1.5,48.5V26.7l9,5.5c0.1,0.1,0.2,0.1,0.3,0.2l15.3,9.3
								c0.2,0.2,0.6,0.2,0.8,0l15.3-9.3c0.1,0,0.2-0.1,0.3-0.2l9-5.5v21.8c0,2.7-2.2,4.9-4.9,4.9h-40C3.8,53.4,1.5,51.2,1.5,48.5z"
								/>
							<path class="st2" d="M24.6,26c0.3,0.3,0.7,0.4,1.1,0.1l4.6-3.8c0.3-0.3,0.4-0.8,0.1-1.1s-0.8-0.4-1.1-0.1l-4,3.3l-1.5-1.7
								c-0.3-0.3-0.8-0.4-1.1-0.1c-0.3,0.3-0.4,0.8-0.1,1.1L24.6,26z"/>
							<path class="st2" d="M26.5,33.3c5.3,0,9.7-4.3,9.7-9.7S31.8,14,26.5,14s-9.7,4.3-9.7,9.7C16.8,29,21.1,33.3,26.5,33.3
								L26.5,33.3z M26.5,15.5c4.5,0,8.1,3.6,8.1,8.1s-3.6,8.1-8.1,8.1s-8.1-3.6-8.1-8.1C18.3,19.2,22,15.5,26.5,15.5L26.5,15.5z"/>
							<path class="st2" d="M40.6,23.6c0-0.4-0.3-0.8-0.8-0.8h-1.7c-0.4,0-0.8,0.3-0.8,0.8s0.3,0.8,0.8,0.8h1.7
								C40.2,24.4,40.6,24.1,40.6,23.6L40.6,23.6z"/>
							<path class="st2" d="M12.5,23.6c0,0.4,0.3,0.8,0.8,0.8H15c0.4,0,0.8-0.3,0.8-0.8s-0.3-0.8-0.8-0.8h-1.7
								C12.8,22.9,12.5,23.2,12.5,23.6z"/>
							<path class="st2" d="M36.4,28.5l2.4,0.8c0.4,0.1,0.8-0.1,1-0.5c0.1-0.4-0.1-0.8-0.5-1L36.9,27c-0.4-0.1-0.8,0.1-1,0.5
								S36,28.3,36.4,28.5L36.4,28.5z"/>
							<path class="st2" d="M16.2,20.3c0.3,0.1,0.6,0,0.8-0.1c0.2-0.2,0.3-0.5,0.3-0.7c-0.1-0.3-0.2-0.5-0.5-0.6L14.3,18
								c-0.4-0.1-0.8,0.1-1,0.5c-0.1,0.4,0.1,0.8,0.5,1L16.2,20.3z"/>
							<path class="st2" d="M36.7,20.7c0.1,0,0.2,0,0.2,0l2.4-0.7c0.4-0.1,0.6-0.6,0.5-1s-0.6-0.6-1-0.5l-2.4,0.7
								c-0.4,0.1-0.6,0.5-0.5,0.9C36,20.4,36.4,20.7,36.7,20.7L36.7,20.7z"/>
							<path class="st2" d="M13.9,28.9c0.1,0,0.2,0,0.2,0l2.4-0.7c0.4-0.1,0.6-0.6,0.5-1c-0.1-0.4-0.6-0.6-1-0.5l-2.4,0.7
								c-0.4,0.1-0.6,0.5-0.5,0.9S13.6,28.9,13.9,28.9L13.9,28.9z"/>
						</g>
					</g>
				</g>
			</g>
		</g>
	</g>
</g>
</svg>
