<?xml version="1.0" encoding="utf-8"?>
<!-- Generator: Adobe Illustrator 23.0.1, SVG Export Plug-In . SVG Version: 6.00 Build 0)  -->
<svg version="1.1" id="Layer_1" xmlns="http://www.w3.org/2000/svg" xmlns:xlink="http://www.w3.org/1999/xlink" x="0px" y="0px"
	 viewBox="0 0 102 79" style="enable-background:new 0 0 102 79;" xml:space="preserve">
<style type="text/css">
	.st0{fill-rule:evenodd;clip-rule:evenodd;fill:#F74F78;fill-opacity:0.1;}
	.st1{opacity:0.1019;fill:#F74F78;enable-background:new    ;}
	.st2{fill:#F74F78;}
</style>
<title>icon</title>
<desc>Created with Sketch.</desc>
<g>
	<g transform="translate(-691.000000, -1495.000000)">
		<g id="Services" transform="translate(345.000000, 1157.000000)">
			<g id="cards">
				<g id="card" transform="translate(315.000000, 307.000000)">
					<g id="icon" transform="translate(23.000000, 22.868210)">
						<path id="Oval" class="st0" d="M45.9,82.9c17.9,8.7,53.2,3.1,61.9-14.8s-17.1-38.1-35-46.8s-42-21.7-50.7-3.9
							S28,74.2,45.9,82.9z"/>
						<g transform="translate(8.000000, 32.131790)">
							<path id="Path" class="st1" d="M32.6,39c0-0.6,0-1.2,0.1-1.7H10.5C8,37.2,6,35.2,6,32.7V1.8C3.6,2.1,1.8,4,1.8,6.4v30.4
								c0,2.5,2.1,4.6,4.6,4.6h26.4C32.6,40.6,32.6,39.8,32.6,39z"/>
							<path id="Shape" class="st2" d="M48.9,6.5v16.9c-0.3,0-0.6,0-0.9,0c-0.3,0-0.7,0-1,0V13.2H1.9v23.5c0,2.5,2,4.6,4.6,4.6h26.2
								c0.1,0.5,0.2,1,0.3,1.5c0,0.1,0.1,0.3,0.1,0.4H6.5c-3.6,0-6.5-2.9-6.5-6.5V6.5C0,2.9,2.9,0,6.5,0h35.9
								C46,0,48.9,2.9,48.9,6.5L48.9,6.5z M47,11.3V6.5C47,4,45,2,42.4,2H6.5C4,2,1.9,4,1.9,6.5v4.7H47z"/>
							<g id="Group" transform="translate(3.319085, 3.872266)">
								<path class="st2" d="M45.6,19.6c-0.3,0-0.6,0-0.9,0c-0.3,0-0.7,0-1,0c-4.6,0.3-8.9,2.7-11.6,6.4c-2.7,3.8-3.6,8.5-2.4,13
									c0,0.1,0.1,0.3,0.1,0.4c2.2,7.5,9.7,12.2,17.5,10.9C55,48.9,60.6,42,60.1,34.2C59.7,26.3,53.5,20,45.6,19.6L45.6,19.6z
									 M44.7,48.6c-6.2,0-11.5-4.1-13.1-10.1l-0.1-0.2v0c0,0,0-0.1,0-0.1c-0.9-4,0-8.3,2.6-11.5c2.6-3.2,6.5-5.1,10.6-5.1h0
									c7.5,0,13.5,6.1,13.5,13.5C58.2,42.5,52.2,48.6,44.7,48.6L44.7,48.6z"/>
								<path class="st2" d="M48.3,25.7L48.3,25.7c-1.5,0-3,0.6-4,1.7L42,29.7c-0.4,0.4-0.4,1,0,1.4c0.4,0.4,1,0.4,1.4,0l2.2-2.3
									c0.7-0.7,1.6-1.1,2.6-1.1h0c1.5,0,2.9,0.9,3.4,2.3c0.6,1.4,0.3,3-0.8,4.1l-2.3,2.2c-0.4,0.4-0.4,1,0,1.4
									c0.4,0.4,1,0.4,1.4,0l2.3-2.2c1.6-1.6,2.1-4.1,1.2-6.2C52.6,27.1,50.6,25.7,48.3,25.7L48.3,25.7z"/>
								<path class="st2" d="M40.6,39.1c0.4,0.4,1,0.4,1.4,0l6.8-6.8c0.4-0.4,0.4-1,0-1.4c-0.4-0.4-1-0.4-1.4,0l-6.8,6.8
									c-0.2,0.2-0.3,0.4-0.3,0.7C40.3,38.7,40.4,38.9,40.6,39.1L40.6,39.1z"/>
								<path class="st2" d="M46,39l-2.2,2.3c-0.7,0.7-1.6,1.1-2.6,1.1h0c-1.5,0-2.9-0.9-3.4-2.3c-0.6-1.4-0.3-3,0.8-4.1l2.3-2.2
									c0.3-0.2,0.4-0.6,0.3-0.9c-0.1-0.3-0.4-0.6-0.7-0.7c-0.3-0.1-0.7,0-0.9,0.3l-2.3,2.2c-1.6,1.6-2.1,4.1-1.2,6.2
									c0.9,2.1,2.9,3.5,5.2,3.5h0c1.5,0,2.9-0.6,4-1.7l2.2-2.3c0.4-0.4,0.4-1,0-1.4C47,38.6,46.3,38.6,46,39L46,39z"/>
								<path class="st2" d="M18.4,5.5L18.4,5.5c1.5,0,2.7-1.2,2.7-2.7c0-1.5-1.2-2.7-2.7-2.7h0c-1.5,0-2.7,1.2-2.7,2.7
									C15.6,4.3,16.9,5.5,18.4,5.5z M17.8,2.3C18,2.1,18.2,2,18.4,2h0c0.4,0,0.8,0.3,0.8,0.8s-0.3,0.8-0.8,0.8h0
									c-0.3,0-0.6-0.2-0.7-0.5C17.5,2.8,17.6,2.5,17.8,2.3z"/>
								<path class="st2" d="M10.5,5.5L10.5,5.5c1.5,0,2.7-1.2,2.7-2.7c0-1.5-1.2-2.7-2.7-2.7h0c-1.5,0-2.7,1.2-2.7,2.7
									C7.8,4.3,9.1,5.5,10.5,5.5z M10,2.2C10.2,2.1,10.4,2,10.6,2h0c0.4,0,0.8,0.3,0.8,0.8v0c0,0.4-0.3,0.8-0.8,0.8h0
									c-0.3,0-0.6-0.2-0.7-0.5C9.7,2.8,9.8,2.5,10,2.2z"/>
								<path class="st2" d="M2.8,5.5c1.1,0,2.1-0.7,2.5-1.7c0.4-1,0.2-2.2-0.6-2.9C4.2,0.3,3.5,0.1,2.8,0.1h0C1.3,0.1,0,1.3,0,2.8
									C0,4.3,1.3,5.5,2.8,5.5L2.8,5.5z M2,2.8C2,2.3,2.3,2,2.8,2h0c0.4,0,0.8,0.3,0.8,0.8c0,0.4-0.3,0.8-0.8,0.8h0
									C2.3,3.5,2,3.2,2,2.8z"/>
							</g>
						</g>
					</g>
				</g>
			</g>
		</g>
	</g>
</g>
</svg>
