<?xml version="1.0" standalone="no"?>
<!DOCTYPE svg PUBLIC "-//W3C//DTD SVG 20010904//EN"
 "http://www.w3.org/TR/2001/REC-SVG-20010904/DTD/svg10.dtd">
<svg version="1.0" xmlns="http://www.w3.org/2000/svg"
 width="512.000000pt" height="512.000000pt" viewBox="0 0 512.000000 512.000000"
 preserveAspectRatio="xMidYMid meet">
<metadata>
Created by potrace 1.11, written by Peter Selinger 2001-2013
</metadata>
<g transform="translate(0.000000,512.000000) scale(0.100000,-0.100000)"
fill="#000000" stroke="none">
<path d="M2467 3910 c-128 -20 -273 -106 -347 -205 -21 -27 -88 -138 -150
-245 -62 -107 -175 -303 -251 -436 -209 -361 -213 -354 208 -354 l278 0 18 49
c23 65 83 140 144 179 182 117 419 50 515 -146 30 -60 33 -75 33 -157 0 -79
-3 -97 -29 -149 -36 -73 -97 -135 -168 -173 -48 -25 -63 -28 -153 -28 -89 0
-106 3 -157 28 -75 37 -138 99 -172 170 -27 54 -30 57 -66 57 -70 0 -274 -40
-390 -76 -297 -92 -574 -282 -680 -466 -68 -118 -84 -177 -84 -298 1 -151 43
-257 136 -347 127 -123 330 -147 483 -57 33 20 101 67 150 105 152 117 399
229 610 275 111 24 291 23 415 -4 218 -47 421 -147 579 -286 75 -65 121 -89
215 -113 127 -31 283 13 377 107 120 120 159 319 96 492 -13 35 -229 421 -482
858 -252 437 -486 842 -519 900 -119 209 -269 309 -481 324 -38 2 -96 1 -128
-4z"/>
</g>
</svg>
