<svg xmlns="http://www.w3.org/2000/svg" xmlns:xlink="http://www.w3.org/1999/xlink" height="512" viewBox="0 0 511.213 511.213" width="512" xmlns:v="https://vecta.io/nano"><path d="M478.956 39.13a21.63 21.63 0 0 0-25.888-17.307l-38.745 8.436a190.78 190.78 0 0 0-110.869 70.404L283.7 126.44H166.615c-10.023 0-17.648 9-16 18.887l3.148 18.887c2.607 15.643 16.14 27.108 32 27.108h85.615c13.604 0 19.732-4.206 26.268-11.944l40.147-52.414c21.233-27.722 51.612-47.013 85.732-54.44l38.24-8.325c11.457-2.496 19.276-13.53 17.192-25.07z" fill="#eaf6ff"/><path d="M225.767 191.323h-40c-15.86 0-29.4-11.47-32-27.1l-3.15-18.9c-1.65-9.88 5.97-18.88 16-18.88h40c-10.03 0-17.65 9-16 18.88l3.15 18.9c2.6 15.64 16.14 27.1 32 27.1z" fill="#d8ecfe"/><path d="M338.107 503.322h-165c-11.046 0-20-8.954-20-20s8.954-20 20-20h165c11.046 0 20 8.954 20 20s-8.955 20-20 20z" fill="#c4e2ff"/><path d="M223.107 503.323h-50c-11.05 0-20-8.96-20-20a19.9 19.9 0 0 1 5.86-14.14c3.62-3.62 8.62-5.86 14.14-5.86h50c-5.52 0-10.52 2.24-14.14 5.86a19.9 19.9 0 0 0-5.86 14.14c0 11.04 8.95 20 20 20z" fill="#b3dafe"/><path d="M333.603 463.322H177.61c-80.462 0-145.69-65.227-145.69-145.69v-54.92c0-16.57 13.43-30 30-30h387.37c16.57 0 30 13.43 30 30v54.92c-.001 80.462-65.228 145.69-145.7 145.69z" fill="#eaf6ff"/><path d="M227.607 463.323h-50c-80.46 0-145.7-65.23-145.7-145.7v-54.92c0-16.57 13.44-30 30-30h50c-16.56 0-30 13.43-30 30v54.92c0 80.46 65.23 145.7 145.7 145.7z" fill="#d8ecfe"/><use xlink:href="#B" fill="#b3dafe"/><path d="M479.297 281.833v35.8c0 22.05-4.9 42.96-13.67 61.7l-.02.01h-420l-.02-.01c-8.77-18.73-13.67-39.64-13.67-61.7v-35.8z" fill="#c4e2ff"/><use xlink:href="#B" fill="#b3dafe"/><path d="M449.297 225.605H61.917c-20.678 0-37.5 16.822-37.5 37.5v54.92c0 72.825 53.906 137.627 125.648 150.705-11.774 18.044 1.685 42.483 23.042 42.483h165c21.357 0 34.816-24.44 23.042-42.483 71.74-13.078 125.648-77.843 125.648-150.705v-54.92c0-20.678-16.823-37.5-37.5-37.5zm-387.38 15h387.38c12.407 0 22.5 10.094 22.5 22.5v11.62h-330.35a7.5 7.5 0 1 0 0 15h330.35v28.3c0 19.23-3.953 37.55-11.08 54.203H50.497c-7.128-16.652-11.08-34.974-11.08-54.203v-28.3h69.35a7.5 7.5 0 1 0 0-15h-69.35v-11.62c0-12.406 10.093-22.5 22.5-22.5zm271.7 215.6h-13.96a7.5 7.5 0 1 0 0 15l18.46-.002c16.158 0 16.158 25 0 25h-165c-16.158 0-16.158-25 0-25l113.85.002a7.5 7.5 0 1 0 0-15h-109.35c-51 0-95.63-27.774-119.575-68.987h395.15c-23.945 41.214-68.576 68.987-119.576 68.987zm-187.25-290.37a39.8 39.8 0 0 0 39.398 33.38h85.6c16.367 0 24.378-5.6 32-14.6.077-.092 40.375-52.7 40.375-52.7 20.125-26.277 49.023-44.628 81.372-51.673l38.238-8.328c15.417-3.354 25.724-18.48 22.977-33.724-2.78-15.38-18.7-26.822-34.865-23.305l-9.33 2.03c-4.048.88-6.615 4.876-5.735 8.923s4.878 6.612 8.922 5.735l9.333-2.03c8.842-1.025 14.48 2.746 16.912 11.312 1.33 7.387-3.784 14.745-11.405 16.402l-38.24 8.33a155.2 155.2 0 0 0-90.087 57.208l-40.04 52.265c-5.375 6.33-9.645 9.156-20.428 9.156h-85.6c-12.248 0-22.594-8.765-24.602-20.844l-3.15-18.892c-.27-6.04 2.598-9.42 8.603-10.145h117.1a7.5 7.5 0 0 0 5.954-2.938l19.75-25.78c25.632-33.462 62.34-57.232 103.36-66.932a7.5 7.5 0 0 0 5.573-9.024c-.953-4.03-4.995-6.523-9.024-5.573-44.387 10.502-84.1 36.217-111.83 72.416L280 119.336H166.617c-16.335 1.975-24.134 11.18-23.398 27.613zm60.208-78.38c3.507 8.393 17.988 4.14 13.84-5.783-5.7-13.662-3.082-19.73.244-27.412 3.83-8.845 8.595-19.853-.32-39.762a7.5 7.5 0 1 0-13.69 6.131c6.215 13.88 3.7 19.665.244 27.67-3.782 8.735-8.488 19.606-.32 39.155zm-48.724-10.06c3.507 8.393 17.988 4.14 13.84-5.783-5.7-13.662-3.082-19.73.244-27.412 3.83-8.845 8.595-19.853-.32-39.762a7.5 7.5 0 0 0-9.91-3.779 7.5 7.5 0 0 0-3.78 9.91c6.215 13.88 3.7 19.665.244 27.67-3.782 8.735-8.5 19.606-.32 39.155zm97.448 0c3.507 8.393 17.988 4.14 13.84-5.783-5.7-13.662-3.082-19.73.244-27.412 3.83-8.845 8.595-19.853-.32-39.762a7.5 7.5 0 0 0-9.91-3.779c-3.78 1.692-5.473 6.13-3.78 9.9 6.215 13.88 3.7 19.665.244 27.67-3.783 8.735-8.5 19.606-.32 39.155z"/><defs ><path id="B" d="M95.597 379.333h-50l-.02-.01c-8.77-18.73-13.67-39.64-13.67-61.7v-35.8h50v35.8c0 22.06 4.9 42.97 13.68 61.7z"/></defs></svg>