<?xml version="1.0" encoding="utf-8"?>
<!-- Generator: Adobe Illustrator 23.0.1, SVG Export Plug-In . SVG Version: 6.00 Build 0)  -->
<svg version="1.1" id="Layer_1" xmlns="http://www.w3.org/2000/svg" xmlns:xlink="http://www.w3.org/1999/xlink" x="0px" y="0px"
	 viewBox="0 0 101 79" style="enable-background:new 0 0 101 79;" xml:space="preserve">
<style type="text/css">
	.st0{opacity:0.1;fill-rule:evenodd;clip-rule:evenodd;fill:#766DF4;enable-background:new    ;}
	.st1{fill:#766DF4;fill-opacity:0.1;}
	.st2{fill:#766DF4;}
</style>
<title>icon</title>
<desc>Created with Sketch.</desc>
<g>
	<g transform="translate(-481.000000, -1188.000000)">
		<g id="Services" transform="translate(345.000000, 1157.000000)">
			<g id="cards">
				<g id="card" transform="translate(105.000000, 0.000000)">
					<g id="icon" transform="translate(23.000000, 23.000000)">
						<path id="Oval" class="st0" d="M45.3,82.9c17.9,8.7,53.2,3.1,61.9-14.8s-17.1-38.1-35-46.8s-42-21.7-50.7-3.9
							S27.4,74.2,45.3,82.9z"/>
						<g id="financial" transform="translate(8.000000, 32.000000)">
							<path id="Path" class="st1" d="M5.7,1.5H3.2c-1,0-1.7,0.8-1.7,1.7v32H4v-32C4,2.3,4.8,1.5,5.7,1.5z"/>
							<path class="st1" d="M4,40.9v-4.2H1.5v4.2c0,1,0.8,1.7,1.7,1.7h2.5C4.8,42.7,4,41.9,4,40.9L4,40.9z"/>
							<g id="Group" transform="translate(5.723982, 10.825792)">
								<path id="Shape" class="st2" d="M48.6,7.5c-0.2-0.1-0.4-0.1-0.7,0l-8.8,2.9l-1.3-8.8c0-0.2-0.1-0.4-0.2-0.5
									c-0.1-0.2-0.4-0.3-0.6-0.3c-1.3-0.1-3.8,0.3-6.5,3.5c-3.8,4.6-3.2,11.3,1.4,15.1c1.9,1.6,4.3,2.5,6.8,2.5c0.3,0,0.6,0,1,0
									c2.8-0.2,5.4-1.6,7.3-3.8c2.3-2.8,3.1-6.5,2-10C48.9,7.8,48.8,7.6,48.6,7.5L48.6,7.5z M45.8,17.1c-3.3,3.9-9.1,4.4-13,1.1
									s-4.4-9.1-1.2-13c1.9-2.3,3.7-2.9,4.7-3l1.3,9c0,0.3,0.1,0.5,0.4,0.7c0.2,0.2,0.5,0.2,0.8,0.1l8.9-2.9
									C48.4,11.9,47.7,14.9,45.8,17.1L45.8,17.1z"/>
								<path class="st2" d="M39.5,8.1c0,0.3,0.2,0.5,0.4,0.7c0.2,0.1,0.5,0.2,0.8,0.1l6.7-2.1c0.2-0.1,0.4-0.2,0.6-0.5
									c0.1-0.2,0.1-0.5,0.1-0.7c-0.2-0.6-0.8-2.2-2.1-3.6c-1.7-1.7-4-2.4-6.7-1.8c-0.5,0.1-0.8,0.5-0.7,1L39.5,8.1z M44.8,3.1
									c0.7,0.7,1.2,1.5,1.6,2.5l-5.6,1.7L40,1.6C42,1.4,43.6,1.9,44.8,3.1L44.8,3.1z"/>
								<path class="st2" d="M0.8,25.9c0.4,0,0.7-0.3,0.7-0.7V2.6h3.8v22.5c0,0.4,0.3,0.7,0.7,0.7c0.4,0,0.7-0.3,0.7-0.7v-23
									c0-0.6-0.4-1-1-1H1c-0.6,0-1,0.4-1,1v23c0,0.2,0.1,0.4,0.2,0.5S0.6,25.9,0.8,25.9L0.8,25.9z"/>
								<path class="st2" d="M8.8,25.9c0.2,0,0.4-0.1,0.5-0.2c0.1-0.1,0.2-0.3,0.2-0.5V7.7h3.8v17.4c0,0.4,0.3,0.7,0.7,0.7
									s0.7-0.3,0.7-0.7V7.2c0-0.6-0.4-1-1-1H9c-0.6,0-1,0.4-1,1v17.9C8,25.5,8.3,25.9,8.8,25.9L8.8,25.9z"/>
								<path class="st2" d="M16.7,25.9c0.4,0,0.7-0.3,0.7-0.7v-11h3.8v11c0,0.4,0.3,0.7,0.7,0.7c0.4,0,0.7-0.3,0.7-0.7V13.7
									c0-0.6-0.4-1-1-1H17c-0.6,0-1,0.4-1,1v11.4C16,25.5,16.3,25.9,16.7,25.9L16.7,25.9z"/>
							</g>
							<path class="st2" d="M27.3,50.3h-7.9c-0.4,0-0.7,0.3-0.7,0.7v3.2c0,0.4,0.3,0.7,0.7,0.7h22.9c0.4,0,0.7-0.3,0.7-0.7V51
								c0-0.4-0.3-0.7-0.7-0.7h-7.9v-6.1H58c1.8,0,3.2-1.4,3.2-3.2V3.2C61.2,1.4,59.8,0,58,0H3.2C1.4,0,0,1.4,0,3.2v37.7
								c0,1.8,1.4,3.2,3.2,3.2h24.1V50.3z M41.5,53.5H20.1v-1.7h21.4V53.5z M32.8,50.3h-4v-6.1h4L32.8,50.3z M3.2,1.5H58
								c1,0,1.7,0.8,1.7,1.7v32H1.5v-32C1.5,2.3,2.3,1.5,3.2,1.5z M1.5,40.9v-4.2h58.2v4.2c0,1-0.8,1.7-1.7,1.7H3.2
								C2.3,42.7,1.5,41.9,1.5,40.9L1.5,40.9z"/>
						</g>
					</g>
				</g>
			</g>
		</g>
	</g>
</g>
</svg>
