<?xml version="1.0" encoding="utf-8"?>
<!-- Generator: Adobe Illustrator 23.0.1, SVG Export Plug-In . SVG Version: 6.00 Build 0)  -->
<svg version="1.1" id="Layer_1" xmlns="http://www.w3.org/2000/svg" xmlns:xlink="http://www.w3.org/1999/xlink" x="0px" y="0px"
	 viewBox="0 0 100 80" style="enable-background:new 0 0 100 80;" xml:space="preserve">
<style type="text/css">
	.st0{opacity:0.1;fill-rule:evenodd;clip-rule:evenodd;fill:#FFBD5C;enable-background:new    ;}
	.st1{opacity:0.1;fill:#FFBD5C;enable-background:new    ;}
	.st2{fill:#FFBD5C;}
</style>
<title>icon</title>
<desc>Created with Sketch.</desc>
<g>
	<g transform="translate(-373.000000, -1495.000000)">
		<g id="Services" transform="translate(345.000000, 1157.000000)">
			<g id="cards">
				<g id="card" transform="translate(0.000000, 307.000000)">
					<g id="icon" transform="translate(19.000000, 23.000000)">
						<path id="Oval" class="st0" d="M45.3,82.9c17.9,8.7,53.2,3.1,61.9-14.8s-17.1-38.1-35-46.8s-42-21.7-50.7-3.9
							S27.4,74.2,45.3,82.9z"/>
						<g transform="translate(9.000000, 33.000000)">
							<path id="Path" class="st1" d="M12.9,43.5c-0.3,0.3-0.6,0.4-1,0.4s-0.7-0.1-1-0.4L8,40.6c-0.1,0.1-0.1,0.1-0.2,0.2
								c-0.5,0.5-0.5,1.4,0,2l3.1,3.1c0.3,0.3,0.6,0.4,1,0.4s0.7-0.1,1-0.4c0.5-0.5,1.6-1.3,2.2-1.8l-1.2-1.2
								C13.7,42.9,13,43.4,12.9,43.5z"/>
							<path class="st1" d="M23.2,36.9c-2.7,1-5.3,2.4-7.5,4.2l-4.5-4.5c-0.3,0.5-0.6,0.9-1,1.3l5.4,5.4c2.3-1.8,4.8-3.2,7.5-4.2
								l10.1-3.7l-1.7-1.7L23.2,36.9z"/>
							<path id="Shape" class="st2" d="M10.1,46.5c0.5,0.5,1.2,0.8,2,0.8c0.7,0,1.5-0.3,2-0.8c0,0,0,0,0.1-0.1l6.3,6.3
								c0.3,0.3,0.7,0.3,0.9,0c1.9-1.9,1.9-5.1,0-7l-2.8-2.8c1.6-1,3.3-1.9,5.1-2.5l11-4c0.2-0.1,0.4-0.3,0.4-0.5
								c0-0.2,0-0.5-0.2-0.6l-4.9-4.9c1.4-2,1.2-4.7-0.5-6.4c-1.7-1.7-4.4-1.9-6.4-0.5l-4.9-4.9c-0.2-0.2-0.4-0.2-0.6-0.2
								c-0.2,0-0.4,0.2-0.5,0.4l-4,11c-1.3,3.6-3.4,6.9-6.1,9.6c-0.5,0.5-0.8,1.2-0.8,2s0.3,1.5,0.8,2L10.1,46.5z M20.4,46.7
								c1.2,1.2,1.4,3.2,0.4,4.6l-5.7-5.7c0.7-0.7,1.5-1.3,2.3-1.8L20.4,46.7z M28.7,24.9c1.2,1.2,1.4,3.1,0.5,4.5l-5-5
								C25.6,23.5,27.5,23.7,28.7,24.9L28.7,24.9z M14.5,30.3l3.6-10l15.2,15.2l-10,3.6c-2.7,1-5.2,2.4-7.4,4.1l-5.4-5.4
								C12.1,35.5,13.5,33,14.5,30.3z M8.1,40.5c0.5-0.5,1-1.1,1.5-1.6l5.2,5.2c-0.6,0.5-1.1,1-1.6,1.5c-0.6,0.6-1.5,0.6-2.1,0l-3-3
								c-0.3-0.3-0.4-0.6-0.4-1S7.8,40.7,8.1,40.5L8.1,40.5z"/>
							<path class="st2" d="M34.2,29.9c0.2,0.1,0.3,0.1,0.5,0c0.2-0.1,0.3-0.2,0.4-0.4c1.1-2.7,0.5-5.8-1.6-7.9s-5.2-2.7-7.9-1.6
								c-0.3,0.1-0.5,0.5-0.4,0.9c0.1,0.3,0.5,0.5,0.9,0.4c2.2-0.9,4.7-0.4,6.4,1.3c1.7,1.7,2.2,4.2,1.3,6.4
								C33.6,29.3,33.8,29.7,34.2,29.9z"/>
							<path class="st2" d="M37.4,31.1c0.2,0.1,0.3,0.1,0.5,0c0.2-0.1,0.3-0.2,0.4-0.4c1.6-4,0.7-8.6-2.4-11.6c-3-3-7.6-4-11.6-2.4
								c-0.2,0.1-0.4,0.3-0.4,0.5c0,0.2,0.1,0.5,0.3,0.6c0.2,0.1,0.4,0.2,0.7,0.1c3.5-1.4,7.5-0.6,10.2,2.1
								c2.7,2.7,3.5,6.7,2.1,10.2c-0.1,0.2-0.1,0.3,0,0.5C37.1,30.9,37.3,31.1,37.4,31.1L37.4,31.1z"/>
							<path class="st2" d="M44.9,0c-5.6,0-10.1,4.5-10.1,10.1s4.5,10.1,10.1,10.1S55,15.7,55,10.1C55,4.5,50.5,0,44.9,0z
								 M44.9,18.9c-4.8,0-8.8-3.9-8.8-8.8s3.9-8.8,8.8-8.8s8.8,3.9,8.8,8.8C53.7,14.9,49.7,18.9,44.9,18.9L44.9,18.9z"/>
							<path class="st2" d="M48.5,8.9c1.4,0,2.5-1.1,2.5-2.5s-1.1-2.5-2.5-2.5C47.1,3.9,46,5,46,6.4l-3.1,1.8
								c-1-0.9-2.5-0.8-3.4,0.1c-0.9,1-1,2.5-0.1,3.4s2.4,1.1,3.4,0.3l3.2,2c0.1,1.2,1.2,2.2,2.4,2.2c1.2,0,2.3-0.8,2.6-2
								c0.2-1.2-0.5-2.4-1.7-2.8c-1.2-0.4-2.5,0.1-3,1.2L43.6,11c0.2-0.5,0.2-1.1,0-1.6l2.7-1.6C46.9,8.5,47.7,8.9,48.5,8.9z
								 M48.5,5.3c0.5,0,0.9,0.3,1.1,0.7c0.2,0.4,0.1,0.9-0.3,1.3c-0.3,0.3-0.8,0.4-1.3,0.3c-0.4-0.2-0.7-0.6-0.7-1.1
								C47.4,5.8,47.9,5.3,48.5,5.3z M41.3,11.3c-0.6,0-1.2-0.5-1.2-1.2c0-0.6,0.5-1.2,1.2-1.2s1.2,0.5,1.2,1.2
								C42.4,10.7,41.9,11.3,41.3,11.3L41.3,11.3z M48.5,12.6c0.5,0,0.9,0.3,1.1,0.7c0.2,0.4,0.1,0.9-0.3,1.3s-0.8,0.4-1.3,0.3
								c-0.4-0.2-0.7-0.6-0.7-1.1C47.4,13.1,47.9,12.6,48.5,12.6L48.5,12.6z"/>
							<path class="st2" d="M44.9,34.8c-5.6,0-10.1,4.5-10.1,10.1S39.3,55,44.9,55S55,50.5,55,44.9C55,39.3,50.5,34.8,44.9,34.8
								L44.9,34.8z M44.9,53.7c-4.8,0-8.8-3.9-8.8-8.8s3.9-8.8,8.8-8.8s8.8,3.9,8.8,8.8C53.7,49.7,49.7,53.7,44.9,53.7L44.9,53.7z"
								/>
							<path class="st2" d="M49,44.3l-5.5-3.4c-0.2-0.1-0.5-0.1-0.7,0s-0.3,0.3-0.3,0.6v6.8c0,0.2,0.1,0.5,0.3,0.6s0.5,0.1,0.7,0
								l5.5-3.4c0.2-0.1,0.3-0.3,0.3-0.6C49.4,44.7,49.2,44.4,49,44.3L49,44.3z M43.9,47.1v-4.4l3.5,2.2L43.9,47.1z"/>
							<path class="st2" d="M10.1,20.2c5.6,0,10.1-4.5,10.1-10.1S15.7,0,10.1,0S0,4.5,0,10.1C0,15.7,4.5,20.2,10.1,20.2z M10.1,1.3
								c4.8,0,8.8,3.9,8.8,8.8s-3.9,8.8-8.8,8.8s-8.8-3.9-8.8-8.8C1.3,5.3,5.3,1.3,10.1,1.3z"/>
							<path class="st2" d="M6,14.1h4.8c1,0,1.8-0.8,1.8-1.8v-0.1l2.5,1.3c0.2,0.1,0.5,0.1,0.7,0c0.2-0.1,0.3-0.3,0.3-0.6V7.2
								c0-0.2-0.1-0.5-0.3-0.6c-0.2-0.1-0.5-0.1-0.7,0L12.6,8V7.9c0-1-0.8-1.8-1.8-1.8H6c-1,0-1.8,0.8-1.8,1.8v4.4
								C4.2,13.3,5,14.1,6,14.1z M14.7,8.4v3.5l-2.1-1.2V9.5L14.7,8.4z M5.5,7.9c0-0.2,0.2-0.4,0.4-0.4h4.8c0.2,0,0.4,0.2,0.4,0.4
								v4.4c0,0.2-0.2,0.4-0.4,0.4H6c-0.2,0-0.4-0.2-0.4-0.4V7.9z"/>
						</g>
					</g>
				</g>
			</g>
		</g>
	</g>
</g>
</svg>
