<svg xmlns="http://www.w3.org/2000/svg" width="44" height="45.518" xmlns:v="https://vecta.io/nano"><defs><linearGradient id="A" y1=".567" x2="1" y2=".567"><stop offset="0" stop-color="#6a9bf4"/><stop offset=".679" stop-color="#766df4"/></linearGradient></defs><g fill="url(#A)"><path d="M32.62 17.07a1.9 1.9 0 0 0 1.9 1.9 1.9 1.9 0 0 0 1.893-1.9h1.517c0 1.886-1.528 3.414-3.414 3.414s-3.414-1.528-3.414-3.414z"/><path d="M9.862 45.518H28.07a.76.76 0 0 0 .759-.759v-7.586h5.31a5.33 5.33 0 0 0 5.31-5.311v-5.3h3.793a.76.76 0 0 0 .238-.039c.19-.063.35-.2.44-.38s.106-.388.042-.58l-3.793-11.38a.76.76 0 0 0-.719-.519H27.3V6.07h.76v3.793h1.517V5.3a.76.76 0 0 0-.759-.759H27.3V3.035a.76.76 0 0 0-.759-.759h-3.034a.76.76 0 0 0-.759.759v10.62h-2.276v-9.86c-.001-.118-.03-.234-.084-.34L18.883.42a.79.79 0 0 0-.274-.274.79.79 0 0 0-.4-.112c-.278.001-.536.147-.68.385l-1.517 3.035a.75.75 0 0 0-.076.339v9.86H13.66V.76A.76.76 0 0 0 12.9 0H6.83a.76.76 0 0 0-.759.759v12.9H2.28a.76.76 0 0 0-.759.759v14.4a8.34 8.34 0 0 0 7.58 8.31v7.62a.76.76 0 0 0 .762.76zM27.3 37.173V44h-16.7v-7.586a.76.76 0 0 0-.759-.759 6.85 6.85 0 0 1-6.827-6.827V15.172H38.9l3.288 9.862h-3.5a.76.76 0 0 0-.759.759v6.07a3.8 3.8 0 0 1-3.793 3.793H23.518v1.517zM12.138 9.862V12.9H9.862v.758H7.587V1.517h4.55v2.277h-.76V5.3h.76v3.035h-.76v1.517zm6.07-7.407l.76 1.516v9.683H17.45V3.972l.758-1.516zM25.794 9.1v4.55h-1.517V9.1zm0-5.3v3.796h-1.517V3.794z"/><path d="M33.38.76h1.517v1.517H33.38z"/><path d="M31.862 2.276h1.517v1.517h-1.517z"/><path d="M33.38 3.793h1.517V5.3H33.38z"/><path d="M34.897 2.276h1.517v1.517h-1.517z"/><path d="M39.448 6.828h1.517v1.517h-1.517z"/><path d="M37.93 8.345h1.517v1.517H37.93z"/><path d="M39.448 9.862h1.517v1.517h-1.517z"/><path d="M40.966 8.345h1.517v1.517h-1.517z"/><path d="M1.517 3.034h1.517V4.55H1.517z"/><path d="M0 4.552h1.517V6.07H0z"/><path d="M1.517 6.07h1.517v1.517H1.517z"/><path d="M3.035 4.552h1.517V6.07H3.035z"/></g></svg>